<svg width="165" height="157" viewBox="0 0 165 157" fill="none" xmlns="http://www.w3.org/2000/svg">
<path d="M89.8755 148.973C131.366 148.973 165 145.22 165 140.59C165 135.961 131.366 132.208 89.8755 132.208C48.3854 132.208 14.751 135.961 14.751 140.59C14.751 145.22 48.3854 148.973 89.8755 148.973Z" fill="#016080"/>
<path d="M127.133 131.315L128.428 135.302C128.428 135.302 134.668 141.739 132.412 143.484C130.155 145.229 125.091 136.031 125.091 136.031L124.158 131.53L127.133 131.315Z" fill="#FFB8B8"/>
<path d="M115.162 100.46L117.051 99.8312C117.051 99.8312 119.989 100.669 120.408 103.603C120.828 106.537 123.976 121.416 123.976 121.416C123.976 121.416 125.235 122.044 124.395 123.092C123.556 124.14 128.592 133.57 128.592 133.57L124.605 135.456C124.605 135.456 116.631 127.074 116.631 126.235C116.631 125.397 116.841 124.559 116.841 123.721C116.841 122.883 116.631 122.883 116.841 122.254C116.981 121.706 117.051 121.143 117.051 120.577L115.582 117.225L115.162 100.46Z" fill="#F8685F"/>
<path d="M18.9737 114.835C29.4526 114.835 37.9474 97.5256 37.9474 76.1737C37.9474 54.8218 29.4526 37.5127 18.9737 37.5127C8.49482 37.5127 0 54.8218 0 76.1737C0 97.5256 8.49482 114.835 18.9737 114.835Z" fill="#F8685F"/>
<path d="M18.7994 76.5747C19.7458 59.7459 21.6528 48.3785 21.672 48.2656L21.2582 48.1956C21.239 48.3086 19.3287 59.6942 18.3807 76.5447C17.5059 92.0968 17.2948 115.62 21.2581 139.367L21.6721 139.298C17.7155 115.592 17.9261 92.104 18.7994 76.5747Z" fill="#3F3D56"/>
<path d="M35.9321 68.3333L18.7769 77.5027L18.9749 77.8723L36.1302 68.7029L35.9321 68.3333Z" fill="#3F3D56"/>
<path d="M0.864464 72.929L0.666504 73.2986L17.8242 82.4634L18.0221 82.0938L0.864464 72.929Z" fill="#3F3D56"/>
<path d="M63.9113 105.809C78.2508 105.809 89.8753 82.123 89.8753 52.9046C89.8753 23.6862 78.2508 0 63.9113 0C49.5718 0 37.9473 23.6862 37.9473 52.9046C37.9473 82.123 49.5718 105.809 63.9113 105.809Z" fill="#E6E6E6"/>
<path d="M63.596 53.4465C64.8914 30.4138 67.5014 14.8561 67.5277 14.7016L67.1139 14.6316C67.0877 14.7862 64.4743 30.3621 63.1774 53.4166C61.9803 74.6945 61.6916 106.878 67.1138 139.367L67.5278 139.298C62.1123 106.85 62.4006 74.7017 63.596 53.4465Z" fill="#3F3D56"/>
<path d="M87.1538 42.2436L63.6782 54.7913L63.8763 55.1608L87.3519 42.6132L87.1538 42.2436Z" fill="#3F3D56"/>
<path d="M39.094 48.5325L38.896 48.9021L62.375 61.4434L62.5729 61.0738L39.094 48.5325Z" fill="#3F3D56"/>
<path d="M42.2819 126.425C47.6395 126.425 51.9827 117.575 51.9827 106.658C51.9827 95.7414 47.6395 86.8916 42.2819 86.8916C36.9243 86.8916 32.5811 95.7414 32.5811 106.658C32.5811 117.575 36.9243 126.425 42.2819 126.425Z" fill="#E6E6E6"/>
<path d="M42.2734 107.51L42.3308 107.617L51.1018 102.929L50.9039 102.559L42.2916 107.163C42.7682 98.4027 43.743 92.5223 43.7626 92.4065L43.3489 92.3365C43.3274 92.4629 42.1693 99.446 41.7582 109.551L33.072 104.908L32.874 105.277L41.6451 109.966L41.7498 109.77C41.4209 118.11 41.6053 128.538 43.3488 138.985L43.7627 138.916C41.8618 127.526 41.8199 116.157 42.2734 107.51Z" fill="#3F3D56"/>
<path d="M117.729 80.5674C114.356 74.8265 107.683 74.5589 107.683 74.5589C107.683 74.5589 101.18 73.7213 97.0085 82.4648C93.1203 90.6145 87.7541 98.4832 96.1446 100.391L97.6602 95.6395L98.5988 100.745C99.7934 100.831 100.992 100.852 102.189 100.806C111.174 100.514 119.732 100.892 119.456 97.6441C119.09 93.3266 120.975 86.0913 117.729 80.5674Z" fill="#016080"/>
<path d="M94.218 126.552C94.1238 127.152 93.9872 127.745 93.809 128.325C93.6083 128.894 93.2985 129.419 93.1151 129.993C92.5303 131.824 93.341 133.864 94.6358 135.277C95.7553 136.495 97.2052 137.362 98.8091 137.773C99.9771 138.069 101.192 138.112 102.395 138.153C105.729 138.267 109.148 138.368 112.306 137.289C113.305 136.94 114.269 136.499 115.186 135.972C115.476 135.832 115.731 135.63 115.933 135.379C116.174 135.034 116.205 134.586 116.202 134.164C116.195 132.74 115.909 131.324 115.977 129.902C116.015 129.115 116.161 128.328 116.089 127.543C115.992 126.655 115.623 125.818 115.032 125.146C114.441 124.475 113.656 124.003 112.786 123.794C111.89 123.6 110.961 123.705 110.049 123.794C107.681 124.023 105.303 124.13 102.924 124.115C100.494 124.099 98.0784 123.725 95.6601 123.686C94.9449 123.675 94.9593 123.897 94.7316 124.594C94.5219 125.236 94.3503 125.89 94.218 126.552V126.552Z" fill="#2F2E41"/>
<path d="M84.714 125.395C84.0607 125.229 83.3872 125.157 82.7136 125.181C82.0054 125.225 81.3146 125.418 80.6863 125.747C80.0579 126.077 79.506 126.534 79.0667 127.091C78.6316 127.655 78.319 128.304 78.1488 128.996C77.9787 129.688 77.9546 130.408 78.0782 131.109C78.2412 131.869 78.5079 132.603 78.8709 133.291C79.4014 134.376 80.0377 135.458 81.0198 136.153C81.611 136.534 82.2483 136.84 82.9163 137.062L88.0891 139.025C88.85 139.313 89.6111 139.602 90.3796 139.87C94.2384 141.214 98.2642 142.02 102.343 142.266C103.586 142.34 104.846 142.361 106.058 142.076C106.354 142.037 106.625 141.889 106.819 141.662C106.918 141.489 106.976 141.296 106.989 141.097L107.307 138.852C107.378 138.539 107.369 138.214 107.28 137.906C107.134 137.529 106.769 137.291 106.42 137.09C103.02 135.122 99.0488 134.037 96.1864 131.337C95.5126 130.701 94.9486 129.693 94.1299 129.262C93.2015 128.772 92.1081 128.492 91.1484 128.041C89.0505 127.055 86.9878 125.921 84.714 125.395Z" fill="#2F2E41"/>
<path opacity="0.1" d="M89.8783 128.421C91.7066 128.998 99.4259 132.996 100.749 134.392C100.572 134.456 94.5544 131.059 94.3738 131.005C92.7325 130.509 91.0822 130.009 89.5236 129.283C89.21 129.137 87.4865 128.451 87.5646 128.052C87.6527 127.602 89.5537 128.318 89.8783 128.421Z" fill="black"/>
<path d="M112.688 143.43C112.792 143.437 112.895 143.407 112.978 143.344C113.014 143.297 113.041 143.243 113.057 143.185C113.072 143.127 113.076 143.067 113.069 143.008L113.06 139.95C112.187 139.531 111.211 139.397 110.252 139.268L105.78 138.666C105.883 138.68 105.081 140.606 105.204 140.863C105.421 141.316 107.077 141.718 107.544 141.932C109.169 142.676 110.858 143.494 112.688 143.43Z" fill="#FFB8B8"/>
<path d="M98.6574 139.939C97.813 140.075 96.8706 140.195 96.3238 140.857C95.6303 141.696 95.9255 142.948 96.2563 143.988C96.3053 144.198 96.404 144.394 96.544 144.558C96.7697 144.782 97.1157 144.815 97.4322 144.835C98.2022 144.884 99.0217 144.923 99.6945 144.542C99.9994 144.339 100.293 144.12 100.573 143.884C101.069 143.552 101.614 143.301 102.189 143.14C103.244 142.806 104.331 142.58 105.433 142.467C105.867 142.447 106.296 142.371 106.71 142.24C106.918 142.172 107.107 142.058 107.263 141.905C107.419 141.752 107.538 141.566 107.61 141.36C107.766 140.804 107.445 140.238 107.138 139.751C106.755 139.143 106.349 138.504 105.778 138.057C104.944 137.405 104.532 137.906 103.693 138.323C102.106 139.112 100.408 139.657 98.6574 139.939Z" fill="#FFB8B8"/>
<path d="M96.4507 140.706L91.0893 139.109C90.4466 138.884 89.7745 138.753 89.0941 138.72C88.4142 138.72 87.7028 138.945 87.2618 139.466C86.8461 139.958 86.7271 140.63 86.6235 141.267L86.4018 142.63C86.2539 143.317 86.212 144.023 86.2776 144.723C86.379 145.417 86.731 146.111 87.3427 146.447C88.0846 146.855 88.9939 146.656 89.822 146.485C91.4941 146.141 93.1955 145.957 94.9027 145.937C95.5444 145.929 96.2175 145.937 96.7846 145.634C97.4586 145.274 97.8619 144.514 97.9312 143.748C98.0367 142.584 97.6514 141.063 96.4507 140.706Z" fill="#2F2E41"/>
<path d="M114.796 139.315C115.491 139.192 116.104 138.794 116.77 138.559C117.708 138.229 118.724 138.229 119.717 138.232C120.081 138.234 120.47 138.242 120.773 138.445C121.211 138.739 121.323 139.326 121.397 139.85L121.846 143.012C121.93 143.607 122.014 144.217 121.883 144.803C121.751 145.389 121.354 145.954 120.777 146.105C120.076 146.289 119.389 145.838 118.727 145.541C117.072 144.801 115.149 144.99 113.424 144.436C113.104 144.334 112.761 144.176 112.63 143.865C112.571 143.689 112.55 143.503 112.569 143.318C112.598 142.302 112.385 140.914 112.689 139.943C112.962 139.069 114.02 139.315 114.796 139.315Z" fill="#2F2E41"/>
<path d="M126.141 124.122C127.212 123.852 128.323 123.775 129.421 123.897C130.298 123.994 131.201 124.24 131.841 124.851C132.621 125.595 132.871 126.746 132.892 127.827C132.927 129.978 132.218 132.075 130.886 133.764C130.561 134.19 130.174 134.565 129.739 134.877C129.269 135.172 128.769 135.415 128.246 135.601L116.662 140.203C113.615 141.414 110.556 142.628 107.378 143.427C107.291 143.469 107.196 143.493 107.099 143.498C107.003 143.503 106.906 143.488 106.815 143.455C106.724 143.422 106.641 143.371 106.571 143.305C106.5 143.239 106.443 143.159 106.404 143.071C105.388 141.609 104.537 140.041 103.865 138.393C103.835 138.34 103.816 138.282 103.81 138.221C103.805 138.161 103.812 138.1 103.832 138.043C103.875 137.979 103.934 137.928 104.003 137.896L112.197 133.154C112.798 132.838 113.358 132.449 113.865 131.997C114.219 131.65 114.509 131.244 114.721 130.796C114.891 130.439 114.906 129.595 115.123 129.331C115.336 129.073 116.062 129.052 116.398 128.95C116.871 128.804 117.335 128.628 117.786 128.422C119.618 127.596 121.251 126.396 123.008 125.429C123.992 124.862 125.045 124.423 126.141 124.122V124.122Z" fill="#2F2E41"/>
<path opacity="0.1" d="M121.497 127.664C120.089 128.728 118.266 129.707 116.871 130.8C116.395 131.173 108.457 135.669 108.345 136.266C109.647 136.486 117.938 130.644 119.124 130.061C120.311 129.478 121.362 128.656 122.404 127.84C122.67 127.632 123.795 127.006 123.033 126.774C122.604 126.643 121.814 127.451 121.497 127.664Z" fill="black"/>
<path d="M107.397 95.0114C111.801 95.0114 115.372 91.4462 115.372 87.0482C115.372 82.6503 111.801 79.085 107.397 79.085C102.993 79.085 99.4233 82.6503 99.4233 87.0482C99.4233 91.4462 102.993 95.0114 107.397 95.0114Z" fill="#FFB8B8"/>
<path d="M110.755 93.7541C110.755 93.7541 109.496 96.8974 111.804 98.1548C114.113 99.4121 104.67 109.471 104.67 109.471L100.473 97.3165C100.473 97.3165 104.04 96.0592 103.41 92.7063L110.755 93.7541Z" fill="#FFB8B8"/>
<path d="M105.509 102.346L110.591 96.7433L117.47 100.25L116.421 124.978L114.742 126.864C114.742 126.864 107.607 133.151 96.6954 127.912C96.6954 127.912 92.9182 124.769 93.1281 119.949C93.3379 115.129 92.7084 114.5 92.7084 114.5L92.4985 97.5261L102.859 95.4959L105.509 102.346Z" fill="#F8685F"/>
<path d="M82.2062 129.01L80.9107 132.996C80.9107 132.996 74.6707 139.434 76.9275 141.179C79.1844 142.924 84.2478 133.725 84.2478 133.725L85.1809 129.225L82.2062 129.01Z" fill="#FFB8B8"/>
<path d="M94.1772 98.1548L92.2886 97.5261C92.2886 97.5261 89.3507 98.3643 88.931 101.298C88.5113 104.232 85.3637 119.111 85.3637 119.111C85.3637 119.111 84.1046 119.739 84.944 120.787C85.7834 121.835 80.7471 131.265 80.7471 131.265L84.7341 133.151C84.7341 133.151 92.7082 124.769 92.7082 123.93C92.7082 123.092 92.4984 122.254 92.4984 121.416C92.4984 120.577 92.7082 120.577 92.4984 119.949C92.3583 119.401 92.2878 118.838 92.2886 118.272L93.7575 114.919L94.1772 98.1548Z" fill="#F8685F"/>
<path d="M116.238 80.0139L109.645 76.5355L100.541 77.9584L98.6567 86.3388L103.346 86.1571L104.656 83.0783V86.1062L106.82 86.0224L108.075 81.1208L108.86 86.3388L116.552 86.1806L116.238 80.0139Z" fill="#016080"/>
<path d="M69.5017 133.924V146.011H32.5312C32.5314 142.806 33.8067 139.731 36.0766 137.465C38.3465 135.198 41.425 133.924 44.6351 133.924C48.1017 132.845 52.1098 132.501 56.4578 132.614C60.5602 132.719 64.9649 133.233 69.5017 133.924Z" fill="#FF6584"/>
<path d="M64.2202 143.375H81.6053C81.8972 143.375 82.177 143.49 82.3834 143.697C82.5897 143.903 82.7057 144.182 82.7057 144.473C82.7057 144.765 82.5897 145.044 82.3834 145.25C82.177 145.457 81.8972 145.572 81.6053 145.572H64.2202V143.375V143.375Z" fill="#3F3D56"/>
<path d="M67.2314 123.58L71.8913 117.939C71.9987 117.715 72.1718 117.53 72.3875 117.406C72.6032 117.283 72.8513 117.229 73.0988 117.25C73.3463 117.271 73.5815 117.367 73.7731 117.525C73.9647 117.683 74.1036 117.895 74.1713 118.134L76.0089 124.613L67.2314 123.58Z" fill="#3F3D56"/>
<path d="M61.5796 126.453L63.3401 119.355C63.3401 119.107 63.4158 118.864 63.557 118.66C63.6982 118.456 63.8983 118.3 64.1307 118.212C64.3631 118.124 64.6167 118.109 64.8578 118.169C65.099 118.229 65.3162 118.36 65.4805 118.547L69.9421 123.596L61.5796 126.453Z" fill="#FF6584"/>
<path d="M32.5308 146.012H36.0518V153.484C36.0518 153.946 35.9607 154.403 35.7838 154.829C35.6068 155.256 35.3475 155.644 35.0205 155.97C34.6936 156.297 34.3054 156.556 33.8782 156.732C33.451 156.909 32.9932 157 32.5308 157V146.012V146.012Z" fill="#FF6584"/>
<path d="M63.5601 143.814H80.9452C81.237 143.814 81.5169 143.93 81.7232 144.136C81.9296 144.342 82.0455 144.622 82.0455 144.913C82.0455 145.204 81.9296 145.484 81.7232 145.69C81.5169 145.896 81.237 146.012 80.9452 146.012H63.5601V143.814Z" fill="#FF6584"/>
<path opacity="0.2" d="M69.5015 133.924V145.944C67.7154 146.134 65.9095 145.917 64.2195 145.309C62.5296 144.702 60.9994 143.72 59.7441 142.437C58.4888 141.154 57.5409 139.604 56.9716 137.902C56.4024 136.201 56.2266 134.393 56.4575 132.614C60.56 132.719 64.9646 133.233 69.5015 133.924Z" fill="black"/>
<path d="M69.5017 146.012C76.0647 146.012 81.3852 140.699 81.3852 134.145C81.3852 127.59 76.0647 122.277 69.5017 122.277C62.9386 122.277 57.6182 127.59 57.6182 134.145C57.6182 140.699 62.9386 146.012 69.5017 146.012Z" fill="#FF6584"/>
<path d="M80.9454 138.1C81.6746 138.1 82.2658 136.723 82.2658 135.024C82.2658 133.324 81.6746 131.947 80.9454 131.947C80.2162 131.947 79.625 133.324 79.625 135.024C79.625 136.723 80.2162 138.1 80.9454 138.1Z" fill="#3F3D56"/>
<path d="M77.7544 132.606C77.9367 132.606 78.0845 132.262 78.0845 131.837C78.0845 131.412 77.9367 131.068 77.7544 131.068C77.5721 131.068 77.4243 131.412 77.4243 131.837C77.4243 132.262 77.5721 132.606 77.7544 132.606Z" fill="#3F3D56"/>
<path d="M80.1748 131.068C80.3571 131.068 80.5049 130.724 80.5049 130.299C80.5049 129.874 80.3571 129.53 80.1748 129.53C79.9925 129.53 79.8447 129.874 79.8447 130.299C79.8447 130.724 79.9925 131.068 80.1748 131.068Z" fill="#3F3D56"/>
<path d="M68.5047 122.145C68.5047 122.145 67.8442 120.998 67.8442 120.298Z" fill="#3F3D56"/>
<path d="M68.7954 121.403C68.7954 121.403 69.1553 120.129 69.6565 119.64Z" fill="#3F3D56"/>
</svg>
